<?xml version="1.0" encoding="utf-8"?>
<!-- Generator: Adobe Illustrator 16.0.0, SVG Export Plug-In . SVG Version: 6.00 Build 0)  -->
<!DOCTYPE svg PUBLIC "-//W3C//DTD SVG 1.1//EN" "http://www.w3.org/Graphics/SVG/1.1/DTD/svg11.dtd">
<svg version="1.1" id="Layer_1" xmlns="http://www.w3.org/2000/svg" xmlns:xlink="http://www.w3.org/1999/xlink" x="0px" y="0px"
	 width="428.367px" height="153.549px" viewBox="0 0 428.367 153.549" enable-background="new 0 0 428.367 153.549"
	 xml:space="preserve">
<g>
	<path fill="#218EC7" d="M90.322,89.954c-3.482,0-6.312-2.84-6.312-6.318c0-3.484,2.83-6.314,6.312-6.314
		c3.482,0,6.313,2.83,6.313,6.314C96.635,87.115,93.804,89.954,90.322,89.954 M90.322,78.699c-2.721,0-4.937,2.214-4.937,4.938
		c0,2.721,2.216,4.937,4.937,4.937c2.723,0,4.939-2.216,4.939-4.937C95.261,80.913,93.045,78.699,90.322,78.699"/>
	<path fill="#218EC7" d="M88.577,81.206c0-0.076,0.062-0.143,0.14-0.143h2.009c0.892,0,1.617,0.699,1.617,1.582
		c0,0.678-0.454,1.242-1.097,1.498l1.015,1.883c0.049,0.098,0,0.215-0.124,0.215H91.56c-0.058,0-0.107-0.037-0.124-0.067
		l-0.978-1.961H89.34v1.89c0,0.071-0.07,0.14-0.14,0.14h-0.483c-0.079,0-0.14-0.067-0.14-0.14V81.206z M90.672,83.581
		c0.479,0,0.9-0.406,0.9-0.922c0-0.477-0.417-0.878-0.9-0.878h-1.316v1.8H90.672z"/>
	<path fill="#218EC7" d="M92.138,86.459H91.56c-0.136,0-0.264-0.08-0.309-0.196l-0.925-1.838h-0.771v1.678
		c0,0.19-0.165,0.356-0.355,0.356h-0.479c-0.198,0-0.355-0.162-0.355-0.356v-4.896c0-0.198,0.157-0.359,0.355-0.359h2.005
		c1.011,0,1.832,0.807,1.832,1.799c0,0.668-0.388,1.266-1.015,1.603l0.908,1.683c0.058,0.109,0.058,0.245-0.004,0.355
		C92.385,86.392,92.27,86.459,92.138,86.459 M91.605,86.028h0.416l-1.072-1.986l0.223-0.089c0.59-0.241,0.958-0.739,0.958-1.308
		c0-0.754-0.627-1.367-1.403-1.367h-1.939v4.75h0.338V84h1.46L91.605,86.028z M90.668,83.792h-1.526v-2.223h1.526
		c0.607,0,1.118,0.5,1.118,1.091C91.787,83.274,91.275,83.792,90.668,83.792 M89.571,83.365h1.097c0.375,0,0.693-0.32,0.693-0.706
		c0-0.355-0.317-0.666-0.693-0.666h-1.097V83.365z"/>
	<path fill="#218EC7" d="M56.585,56.408v5.064c0,1.136,0.922,2.06,2.057,2.06h29.527c1.138,0,2.063-0.924,2.063-2.06v-5.064
		c0-1.134-0.925-2.056-2.063-2.056H58.642C57.507,54.354,56.585,55.275,56.585,56.408"/>
	<path fill="#218EC7" d="M75.643,43.027h-4.576c-1.137,0-2.057,0.923-2.057,2.061V72c-6.592,4.924-14.718,7.634-22.991,7.634
		c-20.183,0-36.601-15.877-36.601-35.397c0-19.44,16.417-35.269,36.601-35.269c9.461,0,18.427,3.368,25.238,9.469
		c0.427,0.385,1.015,0.598,1.542,0.518c0.558-0.044,1.078-0.317,1.432-0.758l3.016-3.733c0.693-0.854,0.584-2.113-0.25-2.839
		C68.478,4.148,57.476,0.038,46.02,0.038c-25.235,0-45.771,19.832-45.771,44.199c0,24.442,20.42,44.327,45.528,44.327
		c11.382,0,22.76-4.18,31.21-11.455c0.456-0.393,0.713-0.963,0.713-1.56V45.086C77.7,43.946,76.784,43.027,75.643,43.027"/>
	<path fill="#218EC7" d="M158.539,59.86h-1.836c-0.453,0-0.82,0.367-0.82,0.822v10.789c-2.641,1.967-5.896,3.055-9.214,3.055
		c-8.087,0-14.668-6.365-14.668-14.181c0-7.791,6.581-14.132,14.668-14.132c3.792,0,7.386,1.342,10.113,3.793
		c0.169,0.152,0.409,0.233,0.615,0.206c0.223-0.021,0.437-0.125,0.578-0.304l1.205-1.495c0.281-0.344,0.239-0.847-0.095-1.143
		c-3.421-2.991-7.828-4.639-12.416-4.639c-10.113,0-18.336,7.948-18.336,17.711c0,9.794,8.178,17.763,18.237,17.763
		c4.563,0,9.123-1.672,12.506-4.588c0.182-0.162,0.285-0.388,0.285-0.629V60.683C159.36,60.227,158.997,59.86,158.539,59.86"/>
	<path fill="#218EC7" d="M183.18,42.634c-10.088,0-18.291,7.947-18.291,17.711c0,9.794,8.203,17.763,18.291,17.763
		c10.084,0,18.292-7.968,18.292-17.763C201.472,50.581,193.265,42.634,183.18,42.634 M183.18,74.479
		c-8.033,0-14.574-6.338-14.574-14.134c0-7.766,6.541-14.087,14.574-14.087c8.034,0,14.57,6.321,14.57,14.087
		C197.75,68.142,191.214,74.479,183.18,74.479"/>
	<path fill="#218EC7" d="M233.701,43.044c-0.153-0.229-0.408-0.368-0.686-0.368H230.8c-0.338,0-0.64,0.205-0.768,0.511
		L217.96,72.644l-12.023-29.457c-0.132-0.306-0.425-0.511-0.768-0.511h-2.265c-0.277,0-0.537,0.14-0.681,0.368
		c-0.165,0.229-0.19,0.519-0.083,0.773l13.997,33.734c0.123,0.304,0.42,0.507,0.758,0.507h2.129c0.33,0,0.638-0.203,0.765-0.507
		l13.991-33.734C233.887,43.563,233.854,43.272,233.701,43.044"/>
	<path fill="#218EC7" d="M249.962,43.159c-0.132-0.291-0.425-0.48-0.751-0.48h-2.169c-0.327,0-0.62,0.189-0.752,0.485
		l-15.296,33.729c-0.115,0.258-0.096,0.556,0.059,0.789c0.152,0.233,0.418,0.377,0.692,0.377h2.216c0.33,0,0.619-0.189,0.755-0.484
		l4.122-9.118h18.676l4.17,9.122c0.131,0.295,0.426,0.48,0.756,0.48h2.209h0.048c0.452,0,0.823-0.367,0.823-0.824
		c0-0.215-0.078-0.404-0.211-0.553L249.962,43.159z M255.846,64.781h-15.391l7.65-16.965L255.846,64.781z"/>
	<path fill="#1D3967" d="M132.722,35.639h2.026c0.449,0,0.825-0.367,0.825-0.822V1.083c0-0.456-0.368-0.825-0.825-0.825h-2.026
		c-0.458,0-0.825,0.373-0.825,0.825v33.733C131.897,35.272,132.264,35.639,132.722,35.639"/>
	<path fill="#1D3967" d="M146.322,35.639h2.03c0.454,0,0.821-0.367,0.821-0.822V6.688l20.999,28.614
		c0.156,0.216,0.404,0.337,0.664,0.337h2.364c0.458,0,0.825-0.367,0.825-0.822V1.083c0-0.456-0.367-0.825-0.825-0.825h-1.98
		c-0.454,0-0.826,0.373-0.826,0.825v28.13L149.35,0.597c-0.157-0.211-0.404-0.338-0.664-0.338h-2.365
		c-0.458,0-0.825,0.373-0.825,0.825v33.733C145.497,35.272,145.864,35.639,146.322,35.639"/>
	<path fill="#1D3967" d="M184.765,35.639h2.026c0.458,0,0.825-0.367,0.825-0.822V6.688l21.002,28.614
		c0.156,0.216,0.404,0.337,0.66,0.337h2.369c0.454,0,0.816-0.367,0.816-0.822V1.083c0-0.456-0.363-0.825-0.816-0.825h-1.98
		c-0.454,0-0.822,0.373-0.822,0.825v28.13L187.798,0.597c-0.157-0.211-0.405-0.338-0.668-0.338h-2.364
		c-0.458,0-0.822,0.373-0.822,0.825v33.733C183.943,35.272,184.307,35.639,184.765,35.639"/>
	<path fill="#1D3967" d="M237.113,35.691c10.085,0,18.291-7.97,18.291-17.764c0-9.768-8.206-17.717-18.291-17.717
		c-10.094,0-18.299,7.949-18.299,17.717C218.814,27.721,227.021,35.691,237.113,35.691 M237.113,3.842
		c8.029,0,14.562,6.317,14.562,14.085c0,7.791-6.533,14.133-14.562,14.133c-8.038,0-14.574-6.342-14.574-14.133
		C222.535,10.159,229.075,3.842,237.113,3.842"/>
	<path fill="#1D3967" d="M287.625,0.627c-0.152-0.229-0.404-0.368-0.689-0.368h-2.217c-0.328,0-0.635,0.203-0.763,0.512
		l-12.067,29.454L259.865,0.776c-0.124-0.312-0.43-0.516-0.768-0.516h-2.271c-0.271,0-0.536,0.139-0.686,0.368
		c-0.148,0.229-0.182,0.52-0.082,0.772l14,33.734c0.127,0.31,0.424,0.507,0.754,0.507h2.129c0.332,0,0.637-0.198,0.765-0.507
		L287.699,1.4C287.807,1.147,287.783,0.856,287.625,0.627"/>
	<path fill="#1D3967" d="M316.368,35.642h2.211h0.05c0.454,0,0.821-0.372,0.821-0.823c0-0.214-0.079-0.405-0.211-0.554
		L303.891,0.743c-0.133-0.295-0.43-0.483-0.75-0.483h-2.176c-0.322,0-0.613,0.192-0.742,0.483l-15.3,33.731
		c-0.112,0.254-0.096,0.553,0.062,0.787c0.147,0.236,0.414,0.379,0.688,0.379h2.22c0.326,0,0.625-0.189,0.752-0.483l4.123-9.124
		h18.684l4.168,9.127C315.748,35.452,316.045,35.642,316.368,35.642 M309.774,22.365h-15.399l7.658-16.97L309.774,22.365z"/>
	<path fill="#1D3967" d="M341.348,0.26h-24.803c-0.449,0-0.829,0.37-0.829,0.826v1.977c0,0.458,0.38,0.825,0.829,0.825h10.563
		v30.928c0,0.455,0.364,0.822,0.819,0.822h2.024c0.46,0,0.821-0.368,0.821-0.822V3.887h10.57c0.463,0,0.825-0.367,0.825-0.825V1.085
		C342.173,0.629,341.811,0.26,341.348,0.26"/>
	<path fill="#1D3967" d="M349.731,0.26h-2.026c-0.457,0-0.825,0.37-0.825,0.826v33.732c0,0.451,0.368,0.823,0.825,0.823h2.026
		c0.452,0,0.819-0.372,0.819-0.823V1.085C350.553,0.629,350.186,0.26,349.731,0.26"/>
	<path fill="#1D3967" d="M375.207,35.691c10.084,0,18.286-7.97,18.286-17.764c0-9.768-8.202-17.717-18.286-17.717
		c-10.094,0-18.297,7.949-18.297,17.717C356.91,27.721,365.113,35.691,375.207,35.691 M375.207,3.842
		c8.027,0,14.562,6.317,14.562,14.085c0,7.791-6.534,14.133-14.562,14.133c-8.03,0-14.574-6.342-14.574-14.133
		C360.633,10.159,367.177,3.842,375.207,3.842"/>
	<path fill="#1D3967" d="M427.547,0.26h-1.984c-0.45,0-0.819,0.37-0.819,0.826v28.13l-21.05-28.622
		c-0.149-0.21-0.4-0.334-0.67-0.334h-2.359c-0.453,0-0.824,0.37-0.824,0.826v33.732c0,0.451,0.371,0.823,0.824,0.823h2.026
		c0.455,0,0.819-0.372,0.819-0.823V6.688l21.007,28.617c0.151,0.21,0.398,0.336,0.664,0.336h2.364c0.449,0,0.82-0.372,0.82-0.823
		V1.085C428.367,0.629,427.996,0.26,427.547,0.26"/>
	<path fill="#1D3967" d="M294.33,58.16c-4.617-1.397-8.6-2.61-8.6-6.887c0-2.987,3.141-4.92,8.002-4.92
		c2.979,0,6.188,0.893,8.385,2.325c0.193,0.13,0.438,0.166,0.668,0.105c0.223-0.061,0.412-0.216,0.521-0.432l0.914-1.831
		c0.188-0.375,0.065-0.828-0.279-1.06c-2.729-1.779-6.6-2.882-10.113-2.882c-7.126,0-11.911,3.55-11.911,8.835
		c0,6.902,5.842,8.653,10.996,10.204c4.708,1.41,8.769,2.629,8.735,7.12c0,3.479-3.326,5.641-8.683,5.641
		c-3.78,0-7.864-1.701-10.409-4.333c-0.183-0.188-0.457-0.299-0.689-0.249c-0.256,0.03-0.486,0.178-0.619,0.4l-1.064,1.782
		c-0.188,0.33-0.141,0.746,0.142,1.017c3.2,3.146,8.032,5.107,12.589,5.107c7.505,0,12.556-3.781,12.556-9.404
		C305.516,61.554,299.574,59.755,294.33,58.16"/>
	<path fill="#1D3967" d="M340.63,42.676h-2.027c-0.461,0-0.827,0.37-0.827,0.825v15.007h-21.181V43.501
		c0-0.455-0.363-0.825-0.823-0.825h-2.026c-0.453,0-0.821,0.37-0.821,0.825v33.729c0,0.461,0.368,0.828,0.821,0.828h2.026
		c0.46,0,0.823-0.371,0.823-0.828V62.132h21.181v15.1c0,0.459,0.366,0.828,0.827,0.828h2.027c0.452,0,0.82-0.373,0.82-0.828v-33.73
		C341.45,43.046,341.082,42.676,340.63,42.676"/>
	<path fill="#1D3967" d="M374.579,74.431h-19.54V61.798h16.747c0.449,0,0.82-0.37,0.82-0.826v-2.028c0-0.456-0.371-0.822-0.82-0.822
		h-16.747V46.309h18.913c0.457,0,0.825-0.37,0.825-0.826v-1.976c0-0.462-0.368-0.826-0.825-0.826H352.19
		c-0.459,0-0.824,0.363-0.824,0.826v33.729c0,0.457,0.365,0.824,0.824,0.824h22.389c0.461,0,0.825-0.367,0.825-0.824v-1.979
		C375.404,74.797,375.04,74.431,374.579,74.431"/>
	<path fill="#1D3967" d="M400.43,74.431h-14.183v-30.93c0-0.457-0.371-0.825-0.824-0.825h-2.031c-0.45,0-0.815,0.368-0.815,0.825
		v33.732c0,0.457,0.365,0.824,0.815,0.824h17.038c0.457,0,0.821-0.367,0.821-0.824v-1.981
		C401.251,74.797,400.887,74.431,400.43,74.431"/>
	<path fill="#96A6C1" d="M132.189,97.06c-1.613-0.488-3.008-0.912-3.008-2.427c0-1.065,1.106-1.754,2.818-1.754
		c1.04,0,2.158,0.312,2.925,0.815c0.059,0.037,0.125,0.041,0.191,0.029c0.065-0.02,0.123-0.07,0.147-0.123l0.323-0.64
		c0.049-0.104,0.016-0.231-0.083-0.296c-0.933-0.611-2.266-0.991-3.465-0.991c-2.435,0-4.077,1.208-4.077,3.003
		c0,2.352,2.005,2.955,3.771,3.479c1.646,0.5,3.07,0.924,3.054,2.512c0,1.239-1.172,2.006-3.054,2.006
		c-1.316,0-2.744-0.594-3.631-1.518c-0.05-0.052-0.127-0.074-0.198-0.074c-0.066,0.008-0.141,0.058-0.174,0.124l-0.367,0.613
		c-0.053,0.088-0.045,0.212,0.032,0.285c1.103,1.082,2.761,1.75,4.32,1.75c2.567,0,4.292-1.287,4.292-3.196
		C136.023,98.228,133.985,97.606,132.189,97.06"/>
	<path fill="#96A6C1" d="M142.03,94.662c-2.624,0-4.522,1.932-4.522,4.597c0,2.666,1.898,4.596,4.522,4.596
		c2.616,0,4.522-1.931,4.522-4.596C146.553,96.593,144.646,94.662,142.03,94.662 M142.03,102.735c-1.989,0-3.375-1.428-3.375-3.469
		c0-2.039,1.386-3.467,3.375-3.467c1.981,0,3.367,1.428,3.367,3.467C145.397,101.31,144.011,102.735,142.03,102.735"/>
	<path fill="#96A6C1" d="M148.954,90.99c-0.132,0-0.231,0.106-0.231,0.237v12.379c0,0.134,0.099,0.231,0.231,0.231h0.702
		c0.132,0,0.235-0.099,0.235-0.231V91.228c0-0.131-0.103-0.237-0.235-0.237H148.954z"/>
	<path fill="#96A6C1" d="M159.74,94.679c-0.132,0-0.235,0.098-0.235,0.238v4.251c0,2.157-1.164,3.474-3.103,3.522
		c-1.621,0-2.554-0.948-2.554-2.604v-5.17c0-0.142-0.104-0.239-0.231-0.239h-0.685c-0.131,0-0.235,0.1-0.235,0.239v5.299
		c0,2.285,1.325,3.64,3.562,3.64c1.427-0.013,2.554-0.568,3.247-1.588v1.34c0,0.134,0.104,0.231,0.235,0.231h0.681
		c0.136,0,0.236-0.099,0.236-0.231v-8.688c0-0.142-0.1-0.239-0.236-0.239H159.74L159.74,94.679z"/>
	<path fill="#96A6C1" d="M167.811,102.213c-0.058-0.008-0.141-0.008-0.198,0.033c-0.421,0.297-0.892,0.462-1.37,0.462
		c-0.272,0-1.106,0-1.106-1.584v-5.158h2.715c0.132,0,0.235-0.107,0.235-0.234v-0.599c0-0.132-0.103-0.239-0.235-0.239h-2.715
		v-1.914c0-0.133-0.103-0.23-0.239-0.23h-0.668c-0.132,0-0.231,0.1-0.231,0.23v1.914h-1.035c-0.128,0-0.235,0.106-0.235,0.239v0.599
		c0,0.127,0.107,0.234,0.235,0.234h1.035v5.241c0,2.306,1.354,2.647,2.162,2.647h0.041c0.668,0,1.325-0.215,1.948-0.655
		c0.099-0.066,0.132-0.19,0.082-0.293l-0.264-0.569C167.934,102.274,167.876,102.229,167.811,102.213 M166.16,103.615
		L166.16,103.615v0.009V103.615z"/>
	<path fill="#96A6C1" d="M170.501,91.575c-0.454,0-0.826,0.375-0.826,0.838c0,0.475,0.372,0.854,0.826,0.854
		c0.449,0,0.816-0.379,0.816-0.854C171.318,91.95,170.951,91.575,170.501,91.575"/>
	<path fill="#96A6C1" d="M170.146,94.679c-0.132,0-0.231,0.098-0.231,0.238v8.689c0,0.133,0.099,0.23,0.231,0.23h0.686
		c0.131,0,0.235-0.1,0.235-0.23v-8.689c0-0.141-0.104-0.238-0.235-0.238H170.146z"/>
	<path fill="#96A6C1" d="M177.681,94.662c-2.621,0-4.522,1.932-4.522,4.597c0,2.666,1.902,4.596,4.522,4.596
		c2.62,0,4.522-1.931,4.522-4.596C182.203,96.593,180.3,94.662,177.681,94.662 M177.681,102.735c-1.989,0-3.372-1.428-3.372-3.469
		c0-2.039,1.382-3.467,3.372-3.467c1.984,0,3.367,1.428,3.367,3.467C181.047,101.31,179.665,102.735,177.681,102.735"/>
	<path fill="#96A6C1" d="M188.771,94.662c-1.474,0.032-2.6,0.562-3.317,1.547v-1.292c0-0.135-0.099-0.238-0.231-0.238h-0.701
		c-0.132,0-0.231,0.104-0.231,0.238v8.689c0,0.133,0.1,0.23,0.231,0.23h0.701c0.132,0,0.231-0.1,0.231-0.23v-4.688
		c0.144-1.915,1.295-3.037,3.152-3.082c1.659,0,2.603,0.945,2.603,2.596v5.174c0,0.133,0.104,0.23,0.235,0.23h0.702
		c0.132,0,0.235-0.1,0.235-0.23v-5.306C192.382,96.058,191,94.662,188.771,94.662"/>
	<path fill="#96A6C1" d="M197.568,98.581c-1.316-0.396-2.112-0.701-2.112-1.543c0-1.146,1.353-1.271,1.931-1.271
		c0.751,0,1.493,0.207,2.08,0.577c0.058,0.042,0.136,0.05,0.19,0.033c0.058-0.024,0.116-0.065,0.148-0.119l0.297-0.575
		c0.054-0.102,0.02-0.238-0.091-0.304c-0.776-0.478-1.659-0.719-2.607-0.719c-1.907,0-3.086,0.929-3.086,2.418
		c0,1.739,1.547,2.219,2.913,2.647c1.357,0.42,2.187,0.742,2.162,1.662c-0.058,1.264-1.609,1.361-2.084,1.361
		c-1.04,0-2.034-0.376-2.744-1.04c-0.05-0.045-0.124-0.071-0.19-0.062c-0.074,0.018-0.132,0.06-0.173,0.115l-0.322,0.531
		c-0.053,0.1-0.033,0.219,0.042,0.297c0.841,0.805,2.063,1.264,3.354,1.264c1.972,0,3.255-1.012,3.255-2.569
		C200.531,99.469,198.955,99.002,197.568,98.581"/>
	<path fill="#96A6C1" d="M216.383,91.711c-0.132,0-0.234,0.095-0.234,0.233v5.236h-7.422v-5.236c0-0.141-0.099-0.233-0.231-0.233
		h-0.709c-0.128,0-0.231,0.095-0.231,0.233v11.66c0,0.133,0.103,0.235,0.231,0.235h0.709c0.132,0,0.231-0.104,0.231-0.235v-5.269
		h7.422v5.269c0,0.133,0.104,0.235,0.234,0.235h0.701c0.128,0,0.232-0.104,0.232-0.235v-11.66c0-0.141-0.104-0.233-0.232-0.233
		H216.383z"/>
	<path fill="#96A6C1" d="M227.368,94.679c-0.128,0-0.231,0.098-0.231,0.238v4.251c0,2.157-1.164,3.474-3.103,3.522
		c-1.625,0-2.55-0.948-2.55-2.604v-5.17c0-0.142-0.107-0.239-0.239-0.239h-0.685c-0.134,0-0.231,0.1-0.231,0.239v5.299
		c0,2.285,1.329,3.64,3.553,3.64h0.003c1.432-0.013,2.551-0.568,3.252-1.588v1.34c0,0.134,0.104,0.231,0.231,0.231h0.685
		c0.133,0,0.235-0.099,0.235-0.231v-8.688c0-0.142-0.103-0.239-0.235-0.239H227.368L227.368,94.679z"/>
	<path fill="#96A6C1" d="M242.501,94.662c-1.649,0.032-2.851,0.733-3.507,2.039c-0.503-1.306-1.65-2.039-3.256-2.039
		c-1.456,0.032-2.562,0.567-3.262,1.581v-1.326c0-0.135-0.102-0.238-0.236-0.238h-0.686c-0.129,0-0.23,0.104-0.23,0.238v8.686
		c0,0.139,0.104,0.235,0.23,0.235h0.686c0.136,0,0.236-0.099,0.236-0.235v-4.248c0-2.16,1.16-3.477,3.09-3.521
		c1.617,0,2.554,0.944,2.554,2.599v5.17c0,0.139,0.095,0.235,0.228,0.235h0.68c0.143,0,0.24-0.099,0.24-0.235v-4.248
		c0-2.16,1.154-3.477,3.07-3.521c1.617,0,2.549,0.944,2.549,2.599v5.17c0,0.139,0.107,0.235,0.24,0.235h0.682
		c0.133,0,0.234-0.099,0.234-0.235v-5.306C246.042,96.024,244.723,94.662,242.501,94.662"/>
	<path fill="#96A6C1" d="M255.499,97.839c-0.017-1.992-1.295-3.177-3.425-3.177c-1.522,0-2.624,0.644-3.49,1.276
		c-0.1,0.076-0.124,0.211-0.059,0.314l0.33,0.537c0.033,0.059,0.09,0.096,0.158,0.105c0.072,0.015,0.131,0,0.184-0.045
		c0.992-0.746,1.845-1.084,2.777-1.084c1.534,0,2.353,0.733,2.367,2.115v0.611h-2.854c-2.139,0-3.467,0.988-3.467,2.574
		c0,1.642,1.279,2.785,3.104,2.785c1.377,0,2.482-0.434,3.242-1.271l0.008,1.021c0,0.129,0.107,0.231,0.24,0.231h0.686h0.004h0.008
		c0.129,0,0.234-0.103,0.234-0.235c0-0.021-0.009-0.045-0.021-0.072L255.499,97.839z M254.361,99.589v1.143
		c-0.484,1.326-1.562,2.025-3.137,2.025c-1.254,0-2.07-0.667-2.07-1.703c0-1.213,1.312-1.464,2.41-1.464L254.361,99.589
		L254.361,99.589z"/>
	<path fill="#96A6C1" d="M262.749,94.662c-1.47,0.032-2.604,0.562-3.313,1.551v-1.296c0-0.135-0.104-0.238-0.234-0.238h-0.698
		c-0.132,0-0.237,0.104-0.237,0.238v8.689c0,0.133,0.104,0.23,0.237,0.23h0.698c0.132,0,0.234-0.1,0.234-0.23v-4.688
		c0.142-1.915,1.295-3.037,3.152-3.082c1.648,0,2.604,0.945,2.604,2.596v5.174c0,0.133,0.104,0.23,0.234,0.23h0.701
		c0.127,0,0.232-0.099,0.232-0.23v-5.306C266.359,96.058,264.977,94.662,262.749,94.662"/>
	<path fill="#96A6C1" d="M281.098,101.132c0.504-0.688,0.949-1.479,1.34-2.369c0.045-0.099,0.011-0.223-0.078-0.281l-0.521-0.387
		c-0.057-0.041-0.127-0.054-0.206-0.037c-0.066,0.018-0.119,0.07-0.148,0.139c-0.354,0.822-0.742,1.55-1.168,2.162
		c-1.176-1.166-2.133-2.146-2.853-2.98c1.388-0.734,2.835-1.605,2.835-3.245c0-1.437-1.109-2.44-2.701-2.44
		c-1.673,0-2.89,1.099-2.89,2.606c0,0.817,0.362,1.681,1.164,2.771c-1.329,0.729-2.665,1.677-2.665,3.451
		c0,1.871,1.542,3.336,3.523,3.336c1.299,0,2.582-0.654,3.717-1.91c0.595,0.587,1.242,1.228,1.918,1.91
		c0.046,0.041,0.107,0.071,0.174,0.071c0.064,0,0.124-0.032,0.164-0.079l0.389-0.418c0.09-0.09,0.082-0.238-0.005-0.33
		L281.098,101.132z M276.525,97.884c0.812,0.954,1.906,2.042,3.162,3.299c-0.941,1.063-1.934,1.604-2.938,1.604
		c-1.394,0-2.45-0.991-2.45-2.299C274.293,99.258,275.333,98.541,276.525,97.884 M276.814,96.584
		c-0.701-0.933-1.031-1.662-1.031-2.286c0-0.924,0.767-1.602,1.832-1.602c1,0,1.623,0.554,1.623,1.436
		C279.238,95.265,278.135,95.883,276.814,96.584"/>
	<path fill="#96A6C1" d="M290.859,102.69v-4.473h5.834c0.132,0,0.24-0.105,0.24-0.23v-0.704c0-0.134-0.107-0.235-0.24-0.235h-5.834
		v-4.186h6.591c0.127,0,0.233-0.104,0.233-0.229V91.94c0-0.129-0.106-0.224-0.233-0.224h-7.53c-0.125,0-0.229,0.095-0.229,0.224
		v11.668c0,0.133,0.104,0.23,0.229,0.23h7.743c0.133,0,0.235-0.099,0.235-0.23v-0.686c0-0.133-0.104-0.23-0.235-0.23h-6.804V102.69z
		"/>
	<path fill="#96A6C1" d="M304.721,94.662c-1.474,0.032-2.604,0.562-3.312,1.547v-1.292c0-0.135-0.1-0.238-0.238-0.238h-0.691
		c-0.144,0-0.24,0.104-0.24,0.238v8.689c0,0.133,0.099,0.23,0.24,0.23h0.691c0.141,0,0.238-0.1,0.238-0.23v-4.688
		c0.141-1.915,1.297-3.037,3.152-3.082c1.648,0,2.604,0.945,2.604,2.596v5.174c0,0.133,0.103,0.23,0.23,0.23h0.698
		c0.129,0,0.236-0.1,0.236-0.23v-5.306C308.33,96.058,306.944,94.662,304.721,94.662"/>
	<path fill="#96A6C1" d="M314.601,94.662c-2.59,0-4.472,1.938-4.472,4.604s1.882,4.592,4.472,4.592c1.423,0,2.678-0.516,3.551-1.457
		c0.079-0.09,0.079-0.228,0-0.312l-0.398-0.458c-0.047-0.05-0.104-0.078-0.179-0.078c-0.065,0-0.124,0.028-0.174,0.078
		c-0.66,0.723-1.646,1.125-2.767,1.125c-1.828,0-3.144-1.22-3.334-3.068h7.342c0.127,0,0.236-0.1,0.236-0.229
		c0.022-1.48-0.423-2.759-1.265-3.619C316.857,95.071,315.818,94.662,314.601,94.662 M314.601,95.769c1.743,0,2.937,1.08,3.15,2.83
		h-6.426C311.581,96.894,312.868,95.769,314.601,95.769"/>
	<path fill="#96A6C1" d="M325.074,94.662c-1.295,0.032-2.327,0.553-2.997,1.494v-1.238c0-0.135-0.104-0.239-0.23-0.239h-0.7
		c-0.132,0-0.235,0.104-0.235,0.239v8.687c0,0.138,0.104,0.234,0.235,0.234h0.7c0.128,0,0.23-0.099,0.23-0.234V98.92
		c0.147-1.946,1.239-3.069,3.005-3.069c0.132,0,0.236-0.1,0.236-0.24v-0.711c0-0.063-0.025-0.127-0.071-0.172
		C325.198,94.687,325.136,94.633,325.074,94.662"/>
	<path fill="#96A6C1" d="M333.631,94.679c-0.128,0-0.229,0.106-0.229,0.234v1.355c-0.76-1.029-1.935-1.607-3.334-1.607
		c-2.46,0-4.233,1.859-4.233,4.428c0,2.545,1.783,4.406,4.249,4.406c1.386,0,2.571-0.582,3.318-1.588v0.75
		c0,2.006-1.288,3.301-3.311,3.301c-1.206-0.033-2.121-0.413-2.988-1.223c-0.049-0.049-0.128-0.064-0.181-0.064
		c-0.071,0.01-0.134,0.049-0.175,0.104l-0.361,0.518c-0.069,0.098-0.05,0.229,0.036,0.309c1.077,0.979,2.24,1.444,3.669,1.479h0.049
		c2.67,0,4.396-1.736,4.396-4.419v-7.744c0-0.128-0.104-0.235-0.236-0.235L333.631,94.679L333.631,94.679z M330.162,102.419
		c-1.86,0-3.211-1.393-3.211-3.316c0-1.932,1.351-3.334,3.211-3.334c1.877,0,3.238,1.402,3.238,3.334
		C333.4,101.028,332.039,102.419,330.162,102.419 M330.141,106.838L330.141,106.838v0.009V106.838z"/>
	<path fill="#96A6C1" d="M343.732,94.679h-0.739c-0.095,0-0.185,0.057-0.215,0.147l-2.9,7.327l-2.979-7.331
		c-0.044-0.087-0.133-0.146-0.224-0.146h-0.732c-0.083,0-0.156,0.042-0.199,0.1c-0.041,0.07-0.049,0.156-0.023,0.229l3.554,8.604
		l-0.363,0.896c-0.376,0.916-0.96,1.419-1.653,1.419c-0.438,0-0.842-0.121-1.181-0.359c-0.06-0.037-0.132-0.049-0.189-0.031
		c-0.068,0.017-0.12,0.059-0.157,0.123l-0.298,0.599c-0.056,0.103-0.02,0.228,0.075,0.294c0.479,0.363,1.098,0.553,1.791,0.553
		c1.117,0,2.046-0.768,2.623-2.146l4.036-9.948c0.033-0.07,0.025-0.156-0.025-0.229C343.886,94.72,343.806,94.679,343.732,94.679"/>
	<path fill="#96A6C1" d="M351.53,102.69V91.938c0-0.129-0.101-0.223-0.24-0.223h-0.693c-0.131,0-0.231,0.094-0.231,0.223v11.668
		c0,0.134,0.103,0.231,0.231,0.231h5.888c0.132,0,0.236-0.099,0.236-0.231v-0.685c0-0.133-0.104-0.231-0.236-0.231H351.53z"/>
	<path fill="#96A6C1" d="M358.701,94.679c-0.131,0-0.238,0.098-0.238,0.238v8.689c0,0.133,0.107,0.23,0.238,0.23h0.685
		c0.129,0,0.23-0.1,0.23-0.23v-8.689c0-0.141-0.104-0.238-0.23-0.238H358.701z"/>
	<path fill="#96A6C1" d="M359.048,91.575c-0.453,0-0.815,0.375-0.815,0.838c0,0.475,0.362,0.854,0.815,0.854
		c0.455,0,0.827-0.379,0.827-0.854C359.875,91.95,359.503,91.575,359.048,91.575"/>
	<path fill="#96A6C1" d="M366.666,95.132c0-0.132-0.096-0.238-0.233-0.238h-2.448v-0.944c0-1.065,0.688-1.837,1.669-1.837
		c0.428,0,0.896,0.174,1.291,0.471c0.062,0.041,0.136,0.064,0.191,0.041c0.066-0.018,0.124-0.05,0.157-0.111l0.312-0.574
		c0.059-0.095,0.031-0.223-0.06-0.293c-0.536-0.424-1.236-0.668-1.938-0.668c-1.584,0-2.772,1.291-2.772,3.023v0.893h-0.874
		c-0.129,0-0.229,0.105-0.229,0.238v0.6c0,0.131,0.102,0.233,0.229,0.233h0.874v7.642c0,0.133,0.099,0.231,0.227,0.231h0.688
		c0.136,0,0.234-0.101,0.234-0.231v-7.642h2.448c0.14,0,0.233-0.104,0.233-0.233V95.132L366.666,95.132z"/>
	<path fill="#96A6C1" d="M375.404,99.46c0.023-1.48-0.416-2.766-1.264-3.619c-0.751-0.771-1.792-1.18-3.009-1.18
		c-2.586,0-4.476,1.938-4.476,4.604s1.89,4.594,4.476,4.594c1.411,0,2.669-0.517,3.545-1.457c0.073-0.092,0.083-0.229,0-0.312
		l-0.403-0.458c-0.041-0.05-0.1-0.079-0.168-0.079c-0.062,0-0.136,0.029-0.181,0.079c-0.664,0.722-1.642,1.125-2.765,1.125
		c-1.827,0-3.136-1.22-3.325-3.069h7.333C375.298,99.688,375.404,99.589,375.404,99.46 M371.134,95.769
		c1.745,0,2.925,1.08,3.142,2.83h-6.411C368.117,96.894,369.4,95.769,371.134,95.769"/>
	<path fill="#96A6C1" d="M108.625,0h-0.706c-0.269,0-0.491,0.219-0.491,0.493v77.365c0,0.275,0.214,0.496,0.491,0.496h0.706
		c0.272,0,0.495-0.221,0.495-0.496V0.493C109.116,0.214,108.898,0,108.625,0"/>
</g>
<g>
	<path fill="#D8D9DD" d="M281.252,151.659c0,0.231-0.107,0.317-0.396,0.317H5.524c-0.291,0-0.524-0.188-0.524-0.42v-2.117
		c0-0.229,0.233-0.417,0.524-0.417h275.33c0.289,0,0.396,0.083,0.396,0.313v2.322L281.252,151.659L281.252,151.659z"/>
	<g>
		<path fill="#213A6A" d="M293.529,146.397c-0.607,0-1.146,0.192-1.559,0.545v-2.187c0-0.152-0.125-0.278-0.279-0.278h-0.703
			c-0.156,0-0.279,0.126-0.279,0.278v6.72c0,0.151,0.123,0.278,0.279,0.278h0.703c0.154,0,0.279-0.127,0.279-0.278v-0.239
			c0.415,0.354,0.959,0.544,1.573,0.544c1.504,0,2.554-1.103,2.554-2.678C296.1,147.51,295.043,146.397,293.529,146.397
			 M293.402,147.59c0.839,0,1.423,0.614,1.423,1.496c0,0.879-0.584,1.493-1.423,1.493c-0.855,0-1.432-0.602-1.432-1.493
			C291.971,148.204,292.562,147.59,293.402,147.59"/>
		<path fill="#213A6A" d="M301.309,146.549c-0.055-0.078-0.141-0.123-0.229-0.123h-0.726c-0.113,0-0.219,0.069-0.26,0.18
			l-1.258,3.275l-1.318-3.28c-0.047-0.104-0.146-0.175-0.262-0.175h-0.74c-0.094,0-0.18,0.045-0.231,0.123
			c-0.05,0.078-0.06,0.179-0.023,0.265l1.927,4.622l-0.151,0.338c-0.237,0.561-0.702,0.617-1.118,0.328
			c-0.068-0.049-0.154-0.064-0.23-0.047c-0.076,0.019-0.143,0.076-0.18,0.146l-0.301,0.588c-0.061,0.116-0.031,0.262,0.072,0.344
			c0.346,0.279,0.729,0.416,1.18,0.416c0.752,0,1.354-0.459,1.689-1.289l2.188-5.449
			C301.371,146.723,301.359,146.625,301.309,146.549"/>
		<path fill="#009BDB" d="M326.217,149.025l-3.586-8.528c-0.019-0.048-0.064-0.093-0.114-0.136c-0.066-0.029-0.113-0.05-0.148-0.05
			h-2.912c-0.15,0-0.295,0.075-0.38,0.196c-0.081,0.125-0.097,0.283-0.04,0.427l2.979,7.093l-0.173,0.087
			c-1.543,0.771-3.161,1.179-4.678,1.179c-5.148,0-9.34-4.021-9.34-8.966c0-4.924,4.174-8.931,9.305-8.931
			c2.502,0,5.013,0.958,6.885,2.629c0.08,0.072,0.192,0.111,0.311,0.111c0.12-0.01,0.168-0.043,0.275-0.184l0.979-2.306
			c0.223-0.636-0.035-0.862-0.119-0.938c-1.987-1.775-4.945-2.756-8.334-2.756c-7.261,0-12.944,5.432-12.944,12.37
			c0,6.978,5.627,12.444,12.811,12.444c3.166,0,6.562-1.203,9.088-3.219c0,0,0.108-0.09,0.151-0.224
			C326.278,149.185,326.222,149.038,326.217,149.025"/>
		<path fill="none" stroke="#009BDB" stroke-width="0.15" stroke-miterlimit="10" d="M326.217,149.025l-3.586-8.528
			c-0.019-0.048-0.064-0.093-0.114-0.136c-0.066-0.029-0.113-0.05-0.148-0.05h-2.912c-0.15,0-0.295,0.075-0.38,0.196
			c-0.081,0.125-0.097,0.283-0.04,0.427l2.979,7.093l-0.173,0.087c-1.543,0.771-3.161,1.179-4.678,1.179
			c-5.148,0-9.34-4.021-9.34-8.966c0-4.924,4.174-8.931,9.305-8.931c2.502,0,5.013,0.958,6.885,2.629
			c0.08,0.072,0.192,0.111,0.311,0.111c0.12-0.01,0.168-0.043,0.275-0.184l0.979-2.306c0.223-0.636-0.035-0.862-0.119-0.938
			c-1.987-1.775-4.945-2.756-8.334-2.756c-7.261,0-12.944,5.432-12.944,12.37c0,6.978,5.627,12.444,12.811,12.444
			c3.166,0,6.562-1.203,9.088-3.219c0,0,0.108-0.09,0.151-0.224C326.278,149.185,326.222,149.038,326.217,149.025z"/>
		
			<path fill="#213A6A" stroke="#213A6A" stroke-width="0.2" stroke-linecap="round" stroke-linejoin="round" stroke-miterlimit="10" d="
			M334.775,140.311h-2.915c-0.041,0-0.095,0.021-0.156,0.053c-0.029,0.025-0.089,0.079-0.107,0.134l-4.896,11.654
			c-0.055,0.137-0.04,0.296,0.045,0.42c0.081,0.122,0.225,0.198,0.376,0.198h2.911c0.039,0,0.086-0.021,0.146-0.049
			c0.043-0.034,0.098-0.086,0.118-0.141l4.895-11.652c0.056-0.137,0.037-0.297-0.044-0.424
			C335.062,140.385,334.924,140.311,334.775,140.311"/>
		
			<path fill="#213A6A" stroke="#213A6A" stroke-width="0.2" stroke-linecap="round" stroke-linejoin="round" stroke-miterlimit="10" d="
			M334.775,140.311h-2.915c-0.041,0-0.095,0.021-0.156,0.053c-0.029,0.025-0.089,0.079-0.107,0.134l-4.896,11.654
			c-0.055,0.137-0.04,0.296,0.045,0.42c0.081,0.122,0.225,0.198,0.376,0.198h2.911c0.039,0,0.086-0.021,0.146-0.049
			c0.043-0.034,0.098-0.086,0.118-0.141l4.895-11.652c0.056-0.137,0.037-0.297-0.044-0.424
			C335.062,140.385,334.924,140.311,334.775,140.311z"/>
		
			<path fill="#213A6A" stroke="#213A6A" stroke-width="0.2" stroke-linecap="round" stroke-linejoin="round" stroke-miterlimit="10" d="
			M342.221,145.211c0.756,0,1.508,0.287,2.07,0.789c0.047,0.038,0.102,0.055,0.156,0.053c0.055-0.004,0.106-0.032,0.142-0.078
			l0.479-0.625c0.062-0.086,0.053-0.205-0.028-0.277c-0.758-0.666-1.785-1.049-2.818-1.049c-2.267,0-4.043,1.697-4.043,3.865
			c0,2.181,1.763,3.887,4.001,3.887c0.986,0,2.045-0.375,2.832-1.002c0.048-0.036,0.074-0.1,0.074-0.157v-2.644
			c0-0.112-0.09-0.203-0.201-0.203h-0.738c-0.112,0-0.203,0.091-0.203,0.203v2.086c-0.52,0.332-1.136,0.52-1.709,0.52
			c-1.549,0-2.804-1.205-2.804-2.688C339.43,146.409,340.681,145.211,342.221,145.211"/>
		
			<path fill="#213A6A" stroke="#213A6A" stroke-width="0.2" stroke-linecap="round" stroke-linejoin="round" stroke-miterlimit="10" d="
			M342.221,145.211c0.756,0,1.508,0.287,2.07,0.789c0.047,0.038,0.102,0.055,0.156,0.053c0.055-0.004,0.106-0.032,0.142-0.078
			l0.479-0.625c0.062-0.086,0.053-0.205-0.028-0.277c-0.758-0.666-1.785-1.049-2.818-1.049c-2.267,0-4.043,1.697-4.043,3.865
			c0,2.181,1.763,3.887,4.001,3.887c0.986,0,2.045-0.375,2.832-1.002c0.048-0.036,0.074-0.1,0.074-0.157v-2.644
			c0-0.112-0.09-0.203-0.201-0.203h-0.738c-0.112,0-0.203,0.091-0.203,0.203v2.086c-0.52,0.332-1.136,0.52-1.709,0.52
			c-1.549,0-2.804-1.205-2.804-2.688C339.43,146.409,340.681,145.211,342.221,145.211z"/>
		
			<path fill="#213A6A" stroke="#213A6A" stroke-width="0.2" stroke-linecap="round" stroke-linejoin="round" stroke-miterlimit="10" d="
			M352.651,144.043h-0.872c-0.084,0-0.156,0.055-0.191,0.129l-2.325,5.84l-2.318-5.84c-0.03-0.074-0.105-0.129-0.188-0.129h-0.896
			c-0.071,0-0.133,0.034-0.171,0.092c-0.038,0.056-0.044,0.127-0.021,0.188l2.958,7.284c0.029,0.075,0.105,0.126,0.188,0.126h0.864
			c0.078,0,0.155-0.051,0.185-0.126l2.978-7.284c0.023-0.061,0.02-0.133-0.02-0.188C352.78,144.077,352.719,144.043,352.651,144.043
			"/>
		
			<path fill="#213A6A" stroke="#213A6A" stroke-width="0.2" stroke-linecap="round" stroke-linejoin="round" stroke-miterlimit="10" d="
			M352.651,144.043h-0.872c-0.084,0-0.156,0.055-0.191,0.129l-2.325,5.84l-2.318-5.84c-0.03-0.074-0.105-0.129-0.188-0.129h-0.896
			c-0.071,0-0.133,0.034-0.171,0.092c-0.038,0.056-0.044,0.127-0.021,0.188l2.958,7.284c0.029,0.075,0.105,0.126,0.188,0.126h0.864
			c0.078,0,0.155-0.051,0.185-0.126l2.978-7.284c0.023-0.061,0.02-0.133-0.02-0.188C352.78,144.077,352.719,144.043,352.651,144.043
			z"/>
		
			<path fill="#213A6A" stroke="#213A6A" stroke-width="0.2" stroke-linecap="round" stroke-linejoin="round" stroke-miterlimit="10" d="
			M361.637,150.896h-4.187v-2.671h3.581c0.11,0,0.205-0.091,0.205-0.203v-0.438c0-0.115-0.095-0.203-0.205-0.203h-3.581v-2.496
			h4.047c0.115,0,0.203-0.092,0.203-0.201v-0.428c0-0.113-0.088-0.203-0.203-0.203h-4.688c-0.111,0-0.203,0.09-0.203,0.203v7.271
			c0,0.111,0.092,0.202,0.203,0.202h4.828c0.11,0,0.201-0.091,0.201-0.202v-0.426C361.838,150.99,361.748,150.896,361.637,150.896"
			/>
		
			<path fill="#213A6A" stroke="#213A6A" stroke-width="0.2" stroke-linecap="round" stroke-linejoin="round" stroke-miterlimit="10" d="
			M361.637,150.896h-4.187v-2.671h3.581c0.11,0,0.205-0.091,0.205-0.203v-0.438c0-0.115-0.095-0.203-0.205-0.203h-3.581v-2.496
			h4.047c0.115,0,0.203-0.092,0.203-0.201v-0.428c0-0.113-0.088-0.203-0.203-0.203h-4.688c-0.111,0-0.203,0.09-0.203,0.203v7.271
			c0,0.111,0.092,0.202,0.203,0.202h4.828c0.11,0,0.201-0.091,0.201-0.202v-0.426C361.838,150.99,361.748,150.896,361.637,150.896z"
			/>
		
			<path fill="#213A6A" stroke="#213A6A" stroke-width="0.2" stroke-linecap="round" stroke-linejoin="round" stroke-miterlimit="10" d="
			M368.971,144.055h-0.431c-0.107,0-0.201,0.089-0.201,0.203v5.985l-4.487-6.108c-0.045-0.051-0.103-0.08-0.169-0.08h-0.508
			c-0.11,0-0.202,0.089-0.202,0.203v7.271c0,0.112,0.092,0.202,0.202,0.202h0.437c0.111,0,0.203-0.09,0.203-0.202v-5.983
			l4.479,6.104c0.04,0.053,0.1,0.082,0.166,0.082h0.512c0.111,0,0.198-0.09,0.198-0.202v-7.271
			C369.17,144.143,369.083,144.055,368.971,144.055"/>
		
			<path fill="#213A6A" stroke="#213A6A" stroke-width="0.2" stroke-linecap="round" stroke-linejoin="round" stroke-miterlimit="10" d="
			M368.971,144.055h-0.431c-0.107,0-0.201,0.089-0.201,0.203v5.985l-4.487-6.108c-0.045-0.051-0.103-0.08-0.169-0.08h-0.508
			c-0.11,0-0.202,0.089-0.202,0.203v7.271c0,0.112,0.092,0.202,0.202,0.202h0.437c0.111,0,0.203-0.09,0.203-0.202v-5.983
			l4.479,6.104c0.04,0.053,0.1,0.082,0.166,0.082h0.512c0.111,0,0.198-0.09,0.198-0.202v-7.271
			C369.17,144.143,369.083,144.055,368.971,144.055z"/>
		
			<path fill="#213A6A" stroke="#213A6A" stroke-width="0.2" stroke-linecap="round" stroke-linejoin="round" stroke-miterlimit="10" d="
			M375.32,144.055h-5.349c-0.111,0-0.205,0.089-0.205,0.203v0.424c0,0.113,0.094,0.205,0.205,0.205h2.252v6.643
			c0,0.112,0.092,0.202,0.203,0.202h0.438c0.111,0,0.202-0.09,0.202-0.202v-6.643h2.252c0.111,0,0.203-0.092,0.203-0.202v-0.427
			C375.523,144.143,375.433,144.055,375.32,144.055"/>
		
			<path fill="#213A6A" stroke="#213A6A" stroke-width="0.2" stroke-linecap="round" stroke-linejoin="round" stroke-miterlimit="10" d="
			M375.32,144.055h-5.349c-0.111,0-0.205,0.089-0.205,0.203v0.424c0,0.113,0.094,0.205,0.205,0.205h2.252v6.643
			c0,0.112,0.092,0.202,0.203,0.202h0.438c0.111,0,0.202-0.09,0.202-0.202v-6.643h2.252c0.111,0,0.203-0.092,0.203-0.202v-0.427
			C375.523,144.143,375.433,144.055,375.32,144.055z"/>
		
			<path fill="#213A6A" stroke="#213A6A" stroke-width="0.2" stroke-linecap="round" stroke-linejoin="round" stroke-miterlimit="10" d="
			M381.153,150.896h-4.188v-2.671h3.582c0.111,0,0.203-0.091,0.203-0.203v-0.438c0-0.115-0.092-0.203-0.203-0.203h-3.582v-2.496
			h4.052c0.112,0,0.202-0.092,0.202-0.201v-0.428c0-0.113-0.09-0.203-0.202-0.203h-4.69c-0.111,0-0.202,0.09-0.202,0.203v7.271
			c0,0.111,0.091,0.202,0.202,0.202h4.826c0.109,0,0.202-0.091,0.202-0.202v-0.426C381.355,150.99,381.264,150.896,381.153,150.896"
			/>
		
			<path fill="#213A6A" stroke="#213A6A" stroke-width="0.2" stroke-linecap="round" stroke-linejoin="round" stroke-miterlimit="10" d="
			M381.153,150.896h-4.188v-2.671h3.582c0.111,0,0.203-0.091,0.203-0.203v-0.438c0-0.115-0.092-0.203-0.203-0.203h-3.582v-2.496
			h4.052c0.112,0,0.202-0.092,0.202-0.201v-0.428c0-0.113-0.09-0.203-0.202-0.203h-4.69c-0.111,0-0.202,0.09-0.202,0.203v7.271
			c0,0.111,0.091,0.202,0.202,0.202h4.826c0.109,0,0.202-0.091,0.202-0.202v-0.426C381.355,150.99,381.264,150.896,381.153,150.896z
			"/>
		
			<path fill="#213A6A" stroke="#213A6A" stroke-width="0.2" stroke-linecap="round" stroke-linejoin="round" stroke-miterlimit="10" d="
			M386.622,149.103c1.076-0.373,1.663-1.234,1.663-2.452c0-1.648-1.104-2.6-3.022-2.6h-2.568c-0.112,0-0.199,0.092-0.199,0.203
			v7.272c0,0.112,0.087,0.205,0.199,0.205h0.436c0.112,0,0.202-0.093,0.202-0.205v-2.222h1.933c0.197,0,0.359-0.008,0.518-0.026
			l1.647,2.363c0.038,0.055,0.099,0.087,0.165,0.087h0.52h0.011c0.112,0,0.204-0.09,0.204-0.202c0-0.065-0.028-0.123-0.075-0.159
			L386.622,149.103z M387.451,146.661c0,1.168-0.771,1.812-2.18,1.812h-1.941v-3.586h1.941
			C386.267,144.887,387.451,145.193,387.451,146.661"/>
		
			<path fill="#213A6A" stroke="#213A6A" stroke-width="0.2" stroke-linecap="round" stroke-linejoin="round" stroke-miterlimit="10" d="
			M386.622,149.103c1.076-0.373,1.663-1.234,1.663-2.452c0-1.648-1.104-2.6-3.022-2.6h-2.568c-0.112,0-0.199,0.092-0.199,0.203
			v7.272c0,0.112,0.087,0.205,0.199,0.205h0.436c0.112,0,0.202-0.093,0.202-0.205v-2.222h1.933c0.197,0,0.359-0.008,0.518-0.026
			l1.647,2.363c0.038,0.055,0.099,0.087,0.165,0.087h0.52h0.011c0.112,0,0.204-0.09,0.204-0.202c0-0.065-0.028-0.123-0.075-0.159
			L386.622,149.103z M387.451,146.661c0,1.168-0.771,1.812-2.18,1.812h-1.941v-3.586h1.941
			C386.267,144.887,387.451,145.193,387.451,146.661z"/>
		
			<path fill="#213A6A" stroke="#213A6A" stroke-width="0.2" stroke-linecap="round" stroke-linejoin="round" stroke-miterlimit="10" d="
			M392.393,144.053h-2.559c-0.111,0-0.203,0.091-0.203,0.203v7.271c0,0.111,0.092,0.202,0.203,0.202h0.438
			c0.111,0,0.203-0.091,0.203-0.202v-2.223h1.918c1.911,0,3.006-0.969,3.006-2.655C395.397,145.002,394.304,144.053,392.393,144.053
			 M390.475,144.887h1.912c1.408,0,2.187,0.631,2.187,1.772c0,1.17-0.775,1.812-2.187,1.812h-1.912V144.887z"/>
		
			<path fill="#213A6A" stroke="#213A6A" stroke-width="0.2" stroke-linecap="round" stroke-linejoin="round" stroke-miterlimit="10" d="
			M392.393,144.053h-2.559c-0.111,0-0.203,0.091-0.203,0.203v7.271c0,0.111,0.092,0.202,0.203,0.202h0.438
			c0.111,0,0.203-0.091,0.203-0.202v-2.223h1.918c1.911,0,3.006-0.969,3.006-2.655C395.397,145.002,394.304,144.053,392.393,144.053
			z M390.475,144.887h1.912c1.408,0,2.187,0.631,2.187,1.772c0,1.17-0.775,1.812-2.187,1.812h-1.912V144.887z"/>
		
			<path fill="#213A6A" stroke="#213A6A" stroke-width="0.2" stroke-linecap="round" stroke-linejoin="round" stroke-miterlimit="10" d="
			M400.309,149.103c1.072-0.373,1.658-1.234,1.658-2.452c0-1.648-1.101-2.6-3.021-2.6h-2.569c-0.116,0-0.202,0.092-0.202,0.203
			v7.272c0,0.112,0.086,0.205,0.202,0.205h0.435c0.111,0,0.206-0.093,0.206-0.205v-2.222h1.931c0.195,0,0.361-0.008,0.521-0.026
			l1.643,2.363c0.04,0.055,0.1,0.087,0.168,0.087h0.52h0.01c0.114,0,0.203-0.09,0.203-0.202c0-0.065-0.026-0.123-0.078-0.159
			L400.309,149.103z M401.134,146.661c0,1.168-0.772,1.812-2.177,1.812h-1.94v-3.586h1.94
			C399.951,144.887,401.134,145.193,401.134,146.661"/>
		
			<path fill="#213A6A" stroke="#213A6A" stroke-width="0.2" stroke-linecap="round" stroke-linejoin="round" stroke-miterlimit="10" d="
			M400.309,149.103c1.072-0.373,1.658-1.234,1.658-2.452c0-1.648-1.101-2.6-3.021-2.6h-2.569c-0.116,0-0.202,0.092-0.202,0.203
			v7.272c0,0.112,0.086,0.205,0.202,0.205h0.435c0.111,0,0.206-0.093,0.206-0.205v-2.222h1.931c0.195,0,0.361-0.008,0.521-0.026
			l1.643,2.363c0.04,0.055,0.1,0.087,0.168,0.087h0.52h0.01c0.114,0,0.203-0.09,0.203-0.202c0-0.065-0.026-0.123-0.078-0.159
			L400.309,149.103z M401.134,146.661c0,1.168-0.772,1.812-2.177,1.812h-1.94v-3.586h1.94
			C399.951,144.887,401.134,145.193,401.134,146.661z"/>
		
			<path fill="#213A6A" stroke="#213A6A" stroke-width="0.2" stroke-linecap="round" stroke-linejoin="round" stroke-miterlimit="10" d="
			M403.957,144.055h-0.435c-0.113,0-0.207,0.089-0.207,0.203v7.271c0,0.112,0.094,0.202,0.207,0.202h0.435
			c0.113,0,0.203-0.09,0.203-0.202v-7.271C404.16,144.143,404.07,144.055,403.957,144.055"/>
		
			<path fill="#213A6A" stroke="#213A6A" stroke-width="0.2" stroke-linecap="round" stroke-linejoin="round" stroke-miterlimit="10" d="
			M403.957,144.055h-0.435c-0.113,0-0.207,0.089-0.207,0.203v7.271c0,0.112,0.094,0.202,0.207,0.202h0.435
			c0.113,0,0.203-0.09,0.203-0.202v-7.271C404.16,144.143,404.07,144.055,403.957,144.055z"/>
		
			<path fill="#213A6A" stroke="#213A6A" stroke-width="0.2" stroke-linecap="round" stroke-linejoin="round" stroke-miterlimit="10" d="
			M408.136,147.393c-0.982-0.299-1.835-0.559-1.835-1.461c0-0.627,0.667-1.033,1.698-1.033c0.638,0,1.327,0.191,1.795,0.496
			c0.054,0.031,0.107,0.042,0.166,0.025c0.055-0.015,0.103-0.056,0.13-0.106l0.195-0.396c0.043-0.094,0.015-0.203-0.071-0.26
			c-0.591-0.388-1.431-0.626-2.191-0.626c-1.552,0-2.597,0.774-2.597,1.931c0,1.508,1.271,1.889,2.395,2.226
			c1.002,0.301,1.872,0.562,1.861,1.51c0,0.733-0.704,1.188-1.848,1.188c-0.809,0-1.68-0.361-2.227-0.926
			c-0.047-0.045-0.108-0.07-0.17-0.06c-0.062,0.007-0.118,0.041-0.148,0.101l-0.229,0.381c-0.045,0.082-0.033,0.186,0.032,0.252
			c0.698,0.683,1.74,1.107,2.732,1.107c1.636,0,2.73-0.826,2.73-2.056C410.57,148.131,409.278,147.738,408.136,147.393"/>
		
			<path fill="#213A6A" stroke="#213A6A" stroke-width="0.2" stroke-linecap="round" stroke-linejoin="round" stroke-miterlimit="10" d="
			M408.136,147.393c-0.982-0.299-1.835-0.559-1.835-1.461c0-0.627,0.667-1.033,1.698-1.033c0.638,0,1.327,0.191,1.795,0.496
			c0.054,0.031,0.107,0.042,0.166,0.025c0.055-0.015,0.103-0.056,0.13-0.106l0.195-0.396c0.043-0.094,0.015-0.203-0.071-0.26
			c-0.591-0.388-1.431-0.626-2.191-0.626c-1.552,0-2.597,0.774-2.597,1.931c0,1.508,1.271,1.889,2.395,2.226
			c1.002,0.301,1.872,0.562,1.861,1.51c0,0.733-0.704,1.188-1.848,1.188c-0.809,0-1.68-0.361-2.227-0.926
			c-0.047-0.045-0.108-0.07-0.17-0.06c-0.062,0.007-0.118,0.041-0.148,0.101l-0.229,0.381c-0.045,0.082-0.033,0.186,0.032,0.252
			c0.698,0.683,1.74,1.107,2.732,1.107c1.636,0,2.73-0.826,2.73-2.056C410.57,148.131,409.278,147.738,408.136,147.393z"/>
		
			<path fill="#213A6A" stroke="#213A6A" stroke-width="0.2" stroke-linecap="round" stroke-linejoin="round" stroke-miterlimit="10" d="
			M416.783,150.896h-4.188v-2.671h3.585c0.111,0,0.203-0.091,0.203-0.203v-0.438c0-0.115-0.092-0.203-0.203-0.203h-3.585v-2.496
			h4.05c0.117,0,0.204-0.092,0.204-0.201v-0.428c0-0.113-0.091-0.203-0.204-0.203h-4.69c-0.109,0-0.202,0.09-0.202,0.203v7.271
			c0,0.111,0.093,0.202,0.202,0.202h4.831c0.111,0,0.202-0.091,0.202-0.202v-0.426C416.985,150.99,416.896,150.896,416.783,150.896"
			/>
		
			<path fill="#213A6A" stroke="#213A6A" stroke-width="0.2" stroke-linecap="round" stroke-linejoin="round" stroke-miterlimit="10" d="
			M416.783,150.896h-4.188v-2.671h3.585c0.111,0,0.203-0.091,0.203-0.203v-0.438c0-0.115-0.092-0.203-0.203-0.203h-3.585v-2.496
			h4.05c0.117,0,0.204-0.092,0.204-0.201v-0.428c0-0.113-0.091-0.203-0.204-0.203h-4.69c-0.109,0-0.202,0.09-0.202,0.203v7.271
			c0,0.111,0.093,0.202,0.202,0.202h4.831c0.111,0,0.202-0.091,0.202-0.202v-0.426C416.985,150.99,416.896,150.896,416.783,150.896z
			"/>
		
			<path fill="#213A6A" stroke="#213A6A" stroke-width="0.2" stroke-linecap="round" stroke-linejoin="round" stroke-miterlimit="10" d="
			M420.365,147.393c-0.983-0.299-1.835-0.559-1.835-1.461c0-0.627,0.666-1.033,1.7-1.033c0.637,0,1.323,0.191,1.795,0.496
			c0.049,0.031,0.106,0.042,0.16,0.025c0.06-0.015,0.104-0.056,0.131-0.106l0.197-0.396c0.045-0.094,0.017-0.203-0.072-0.26
			c-0.588-0.388-1.428-0.626-2.189-0.626c-1.556,0-2.594,0.774-2.594,1.931c0,1.508,1.271,1.889,2.39,2.226
			c1.004,0.301,1.874,0.562,1.862,1.51c0,0.733-0.707,1.188-1.844,1.188c-0.812,0-1.686-0.361-2.229-0.926
			c-0.046-0.045-0.106-0.07-0.171-0.06c-0.062,0.007-0.117,0.041-0.147,0.101l-0.231,0.381c-0.046,0.082-0.031,0.186,0.034,0.252
			c0.696,0.683,1.741,1.107,2.729,1.107c1.638,0,2.731-0.826,2.731-2.056C422.8,148.131,421.507,147.738,420.365,147.393"/>
		
			<path fill="#213A6A" stroke="#213A6A" stroke-width="0.2" stroke-linecap="round" stroke-linejoin="round" stroke-miterlimit="10" d="
			M420.365,147.393c-0.983-0.299-1.835-0.559-1.835-1.461c0-0.627,0.666-1.033,1.7-1.033c0.637,0,1.323,0.191,1.795,0.496
			c0.049,0.031,0.106,0.042,0.16,0.025c0.06-0.015,0.104-0.056,0.131-0.106l0.197-0.396c0.045-0.094,0.017-0.203-0.072-0.26
			c-0.588-0.388-1.428-0.626-2.189-0.626c-1.556,0-2.594,0.774-2.594,1.931c0,1.508,1.271,1.889,2.39,2.226
			c1.004,0.301,1.874,0.562,1.862,1.51c0,0.733-0.707,1.188-1.844,1.188c-0.812,0-1.686-0.361-2.229-0.926
			c-0.046-0.045-0.106-0.07-0.171-0.06c-0.062,0.007-0.117,0.041-0.147,0.101l-0.231,0.381c-0.046,0.082-0.031,0.186,0.034,0.252
			c0.696,0.683,1.741,1.107,2.729,1.107c1.638,0,2.731-0.826,2.731-2.056C422.8,148.131,421.507,147.738,420.365,147.393z"/>
	</g>
</g>
</svg>
